<svg width="514" height="427" fill="none" xmlns="http://www.w3.org/2000/svg"><path d="M114.141 265.716c56.723 27.731 27.573 62.763 5.908 76.813-106.828 61.45-124.082 25.604-119.355 0 14.181-37.159 56.723-104.545 113.447-76.813z" fill="#F37C7C"/><path d="M393.136 86.955c50.66-9.763 72.11 32.356 76.502 54.636 14.117 103.968-27.702 86.301-50.376 64.472-29.817-35.635-76.786-109.345-26.126-119.108z" fill="#F3D27C"/><path d="M104.551 171.402c36.766-1.445 180.018-22.059 196.562-58.299 16.545-36.24-38.603-22.453-79.964-27.968-41.36-5.515-31.119-33.482-23.241-64.207 7.879-30.725-74.528-38.131-131.566 51.996-57.038 90.127 1.707 103.205 38.209 98.478z" fill="#8D7CF3"/><circle cx="249.74" cy="233.983" r="193.017" fill="#F6F4FC" fill-opacity=".8"/><rect x="151.262" y="256.83" width="206.41" height="109.507" rx="2" fill="#F3D27C" fill-opacity=".65"/><rect x="163.867" y="282.595" width="206.41" height="109.507" rx="2" transform="rotate(-14.298 163.867 282.595)" fill="#fff"/><path d="M352.836 212.914l3.808 1.007-21.455 81.114a1.97 1.97 0 01-3.808-1.008l21.455-81.113z" fill="#8D7CF3"/><path fill="#F37C7C" d="M352.836 212.914l3.808 1.007-1.007 3.808-3.808-1.007z"/><path fill="#F9F9F9" d="M351.829 216.722l3.808 1.007-1.007 3.808-3.808-1.007z"/><path d="M333.377 297.751c-.543.67-1.623.385-1.764-.467l-.335-2.029a1 1 0 011.243-1.13l1.629.431a1 1 0 01.522 1.596l-1.295 1.599z" fill="#8D7CF3"/><circle cx="305.675" cy="185.138" r="22.059" fill="#D9CEFB"/><rect x="325.371" y="182.775" width="14.181" height="4.727" rx="2.363" fill="#D9CEFB"/><circle cx="304.1" cy="181.987" r="22.059" fill="#fff"/><rect x="323.795" y="179.624" width="14.181" height="4.727" rx="2.363" fill="#fff"/><circle cx="304.1" cy="181.987" r="18.908" fill="#192457"/><path d="M293.858 176.914c.919-1.707 3.703-4.727 7.484-3.152 4.727 1.97 6.697 3.892 12.605.741m-20.089 8.713c.919-1.707 3.703-4.727 7.484-3.151 4.727 1.969 6.697 3.892 12.605.74m-20.089 8.714c.919-1.707 3.703-4.727 7.484-3.152 4.727 1.97 6.697 3.892 12.605.741" stroke="#2A3774"/><path d="M280.256 318.897a1.455 1.455 0 01-1.206-.174c-.34-.24-.583-.631-.728-1.172-.379-1.416-.443-2.683-.19-3.8s.714-2.386 1.382-3.807c.524-1.135.884-2.059 1.079-2.774.195-.715.189-1.459-.018-2.231-.228-.85-.73-1.434-1.505-1.751-.756-.349-1.675-.379-2.757-.089a6.246 6.246 0 00-2.5 1.332c-.746.614-1.586 1.447-2.52 2.498-.547.533-1.027.854-1.439.965-.438.117-.876.028-1.314-.269a2.396 2.396 0 01-.847-1.305c-.2-.747-.053-1.436.441-2.065.833-1.217 1.915-2.28 3.245-3.188a13.196 13.196 0 014.226-2.002c1.571-.421 3.035-.524 4.39-.307 1.382.21 2.535.701 3.46 1.475.951.766 1.592 1.768 1.923 3.004.359 1.34.351 2.598-.024 3.775-.381 1.152-1.025 2.511-1.93 4.079-.766 1.365-1.32 2.493-1.66 3.385a5.682 5.682 0 00-.304 2.731c.033.433-.061.804-.282 1.111-.202.275-.509.468-.922.579zm2.252 8.093c-.824.22-1.58.133-2.265-.263-.693-.422-1.15-1.045-1.371-1.869-.221-.824-.133-1.579.263-2.265.389-.712.996-1.178 1.82-1.399.824-.221 1.583-.12 2.275.301.686.396 1.14 1.006 1.36 1.831.221.824.124 1.595-.291 2.314-.395.686-.993 1.136-1.791 1.35z" fill="#F37C7C"/><rect x="110.97" y="154.472" width="122.907" height="77.025" rx="4" transform="rotate(-15.407 110.97 154.472)" fill="#EAEAEA"/><g clip-path="url(#clip0)"><path d="M181.214 169.634c.384-.733.529-1.643.206-2.422-.776.244-1.607.938-2.009 1.676-.362.655-.577 1.6-.241 2.359.891-.182 1.66-.882 2.044-1.613zm3.205 5.109c-.515-1.803.694-3.071.746-3.13-1.152-1.004-2.467-.822-2.923-.717-1.111.184-1.925 1.234-2.474 1.385-.546.151-1.566-.256-2.457.008-1.172.344-2.067 1.329-2.373 2.582-.62 2.522 1.182 5.509 2.862 6.954.821.707 1.783 1.49 2.684 1.203.87-.277 1.05-.918 2.111-1.21 1.061-.293 1.519.21 2.443-.063.939-.278 1.298-1.31 1.636-2.34.391-1.191.398-2.241.4-2.295-.023-.006-2.04-.22-2.655-2.377z" fill="#CCD0D2"/></g><defs><clipPath id="clip0"><path fill="#fff" transform="rotate(-15.407 714.041 -548.038)" d="M0 0h15v15H0z"/></clipPath></defs></svg>