<svg width="16" height="16" fill="none" xmlns="http://www.w3.org/2000/svg"><circle cx="8" cy="8" r="7.5" stroke="#192457"/><path d="M8.188 9.552a.448.448 0 01-.312-.12.558.558 0 01-.144-.348l-.444-4.668-.012-.12c0-.248.084-.444.252-.588a.974.974 0 01.66-.228c.28 0 .508.088.684.264.176.168.248.396.216.684l-.444 4.656a.525.525 0 01-.156.348c-.08.08-.18.12-.3.12zm0 2.52a.862.862 0 01-.636-.252.903.903 0 01-.252-.648c0-.256.084-.468.252-.636a.842.842 0 01.636-.264c.256 0 .468.088.636.264.168.168.252.38.252.636a.903.903 0 01-.252.648.862.862 0 01-.636.252z" fill="#192457"/></svg>