<svg width="24" height="24" fill="none" xmlns="http://www.w3.org/2000/svg"><path d="M12 0C5.37 0 0 5.51 0 12.305c0 5.437 3.438 10.048 8.205 11.674.6.116.82-.265.82-.592 0-.292-.01-1.066-.015-2.092-3.338.742-4.042-1.65-4.042-1.65-.546-1.42-1.335-1.8-1.335-1.8-1.087-.764.084-.748.084-.748 1.205.086 1.838 1.268 1.838 1.268 1.07 1.881 2.809 1.338 3.495 1.024.108-.797.417-1.338.76-1.646-2.665-.308-5.466-1.366-5.466-6.08 0-1.343.465-2.44 1.235-3.302-.135-.31-.54-1.562.105-3.256 0 0 1.005-.33 3.3 1.261.96-.273 1.98-.409 3-.415 1.02.006 2.04.142 3 .415 2.28-1.591 3.285-1.261 3.285-1.261.645 1.694.24 2.945.12 3.256.765.861 1.23 1.959 1.23 3.302 0 4.727-2.805 5.767-5.475 6.07.42.369.81 1.123.81 2.276 0 1.647-.015 2.97-.015 3.37 0 .322.21.707.825.584C20.565 22.348 24 17.733 24 12.304 24 5.51 18.627 0 12 0z" fill="#fff"/></svg>