<svg width="744" height="418" fill="none" xmlns="http://www.w3.org/2000/svg"><g filter="url(#filter0_d)"><rect y="5" width="541" height="339" rx="4" fill="#fff"/></g><circle cx="45" cy="34" r="5" fill="#F37C7C"/><circle cx="65" cy="34" r="5" fill="#F3D27C"/><circle cx="85" cy="34" r="5" fill="#7EF37C"/><g filter="url(#filter1_d)"><rect x="177" y="58" width="541" height="339" rx="4" fill="#fff"/></g><circle cx="222" cy="87" r="5" fill="#F37C7C"/><circle cx="242" cy="87" r="5" fill="#F3D27C"/><circle cx="262" cy="87" r="5" fill="#7EF37C"/><rect x="247" y="141" width="200" height="100" rx="2" fill="#F6F4FC"/><path fill="#F3D27C" d="M306 205h82v2h-82z"/><path d="M311.64 196.08c-.267.021-.469-.016-.608-.112s-.208-.24-.208-.432c0-.352.197-.533.592-.544l.48-.032c.544-.032.949-.197 1.216-.496.267-.309.4-.8.4-1.472v-7.68c0-.203.064-.363.192-.48a.633.633 0 01.464-.192c.203 0 .363.064.48.192.117.117.176.277.176.48v7.696c0 .981-.224 1.723-.672 2.224-.448.491-1.125.763-2.032.816l-.48.032zm8.963-8.064c1.952 0 2.928 1.024 2.928 3.072v4.352a.628.628 0 01-.176.464c-.107.117-.256.176-.448.176a.628.628 0 01-.464-.176.624.624 0 01-.176-.464v-.768a2.335 2.335 0 01-.928 1.072c-.416.245-.896.368-1.44.368-.502 0-.966-.101-1.392-.304a2.482 2.482 0 01-.992-.848 2.092 2.092 0 01-.368-1.2c0-.587.149-1.04.448-1.36.298-.331.789-.565 1.472-.704.682-.149 1.632-.224 2.848-.224h.352v-.528c0-.64-.134-1.109-.4-1.408-.256-.299-.678-.448-1.264-.448-.726 0-1.462.197-2.208.592-.288.181-.491.272-.608.272a.41.41 0 01-.32-.144.53.53 0 01-.128-.368c0-.149.042-.277.128-.384a1.63 1.63 0 01.448-.352 4.943 4.943 0 011.264-.496c.48-.128.954-.192 1.424-.192zm-.528 7.072c.64 0 1.162-.213 1.568-.64.416-.437.624-.997.624-1.68v-.464h-.288c-.939 0-1.654.043-2.144.128-.491.075-.843.208-1.056.4-.203.181-.304.453-.304.816 0 .416.149.763.448 1.04.309.267.693.4 1.152.4zm11.444-6.64c.117-.256.304-.384.56-.384.16 0 .304.053.432.16a.5.5 0 01.192.4.504.504 0 01-.064.256l-3.12 6.72a.795.795 0 01-.288.336.809.809 0 01-.416.112.779.779 0 01-.4-.112.92.92 0 01-.304-.336l-3.104-6.72a.474.474 0 01-.064-.24c0-.16.069-.299.208-.416a.763.763 0 01.48-.176c.107 0 .208.032.304.096a.595.595 0 01.24.272l2.672 6 2.672-5.968zm5.646-.432c1.952 0 2.928 1.024 2.928 3.072v4.352a.624.624 0 01-.176.464c-.106.117-.256.176-.448.176a.63.63 0 01-.464-.176.628.628 0 01-.176-.464v-.768a2.33 2.33 0 01-.928 1.072c-.416.245-.896.368-1.44.368a3.2 3.2 0 01-1.392-.304 2.49 2.49 0 01-.992-.848 2.1 2.1 0 01-.368-1.2c0-.587.15-1.04.448-1.36.299-.331.79-.565 1.472-.704.683-.149 1.632-.224 2.848-.224h.352v-.528c0-.64-.133-1.109-.4-1.408-.256-.299-.677-.448-1.264-.448-.725 0-1.461.197-2.208.592-.288.181-.49.272-.608.272a.411.411 0 01-.32-.144.535.535 0 01-.128-.368c0-.149.043-.277.128-.384.096-.117.246-.235.448-.352a4.972 4.972 0 011.264-.496c.48-.128.955-.192 1.424-.192zm-.528 7.072c.64 0 1.163-.213 1.568-.64.416-.437.624-.997.624-1.68v-.464h-.288c-.938 0-1.653.043-2.144.128-.49.075-.842.208-1.056.4-.202.181-.304.453-.304.816 0 .416.15.763.448 1.04.31.267.694.4 1.152.4zm9.621 1.04c-.8 0-1.568-.117-2.304-.352-.726-.245-1.307-.571-1.744-.976a.734.734 0 01-.24-.56c0-.149.042-.277.128-.384.085-.117.186-.176.304-.176.138 0 .288.059.448.176a5.391 5.391 0 003.392 1.152c.917 0 1.621-.176 2.112-.528.49-.352.736-.853.736-1.504 0-.373-.118-.672-.352-.896-.235-.235-.544-.421-.928-.56a13.83 13.83 0 00-1.552-.432c-.875-.203-1.595-.416-2.16-.64a3.422 3.422 0 01-1.36-.96c-.342-.416-.512-.96-.512-1.632 0-.64.17-1.205.512-1.696.352-.501.837-.885 1.456-1.152.629-.277 1.344-.416 2.144-.416.746 0 1.44.117 2.08.352.65.224 1.194.549 1.632.976.17.171.256.357.256.56a.665.665 0 01-.128.4.38.38 0 01-.304.16c-.118 0-.272-.059-.464-.176-.523-.427-1.008-.725-1.456-.896-.448-.171-.987-.256-1.616-.256-.886 0-1.574.187-2.064.56-.491.363-.736.875-.736 1.536 0 .565.213.992.64 1.28.437.277 1.104.523 2 .736.97.235 1.733.453 2.288.656a3.296 3.296 0 011.376.88c.373.395.56.923.56 1.584a2.74 2.74 0 01-.528 1.664c-.342.48-.827.853-1.456 1.12-.63.267-1.35.4-2.16.4zm9.299-.016c-.726 0-1.371-.165-1.936-.496a3.38 3.38 0 01-1.296-1.408c-.299-.608-.448-1.312-.448-2.112s.154-1.509.464-2.128a3.532 3.532 0 011.328-1.44c.565-.341 1.216-.512 1.952-.512.405 0 .805.059 1.2.176.405.107.757.267 1.056.48.192.128.325.256.4.384a.665.665 0 01.128.4.535.535 0 01-.128.368.365.365 0 01-.304.144.533.533 0 01-.24-.064 2.028 2.028 0 01-.224-.128.866.866 0 00-.112-.08 5.041 5.041 0 00-.8-.432c-.246-.107-.55-.16-.912-.16-.779 0-1.387.267-1.824.8-.427.523-.64 1.253-.64 2.192 0 .939.213 1.664.64 2.176.437.512 1.045.768 1.824.768.362 0 .672-.053.928-.16.266-.107.533-.251.8-.432.117-.075.229-.139.336-.192a.636.636 0 01.272-.08.35.35 0 01.288.144.535.535 0 01.128.368.705.705 0 01-.112.384c-.075.107-.214.229-.416.368a3.953 3.953 0 01-1.088.496 4.652 4.652 0 01-1.264.176zm8.296-8.064c.448-.032.672.149.672.544a.598.598 0 01-.144.416c-.096.096-.261.155-.496.176l-.48.048c-.715.064-1.248.32-1.6.768-.341.437-.512.955-.512 1.552v3.888c0 .213-.059.373-.176.48a.661.661 0 01-.464.16.723.723 0 01-.48-.16c-.117-.117-.176-.277-.176-.48v-6.752c0-.203.064-.357.192-.464a.664.664 0 01.464-.176c.171 0 .315.059.432.176.117.107.176.256.176.448v.896c.224-.469.539-.827.944-1.072a3.288 3.288 0 011.424-.432l.224-.016zm2.441 8.032a.723.723 0 01-.48-.16c-.118-.117-.176-.277-.176-.48v-6.752c0-.203.058-.357.176-.464a.685.685 0 01.48-.176.63.63 0 01.464.176c.117.107.176.261.176.464v6.752c0 .213-.059.373-.176.48a.663.663 0 01-.464.16zm0-9.712c-.256 0-.464-.075-.624-.224a.772.772 0 01-.24-.592c0-.235.08-.427.24-.576.16-.149.368-.224.624-.224s.464.075.624.224c.16.149.24.341.24.576 0 .245-.08.443-.24.592-.16.149-.368.224-.624.224zm6.982 1.648c.683 0 1.286.171 1.808.512.523.341.928.821 1.216 1.44.288.608.432 1.317.432 2.128 0 .811-.144 1.52-.432 2.128a3.3 3.3 0 01-1.216 1.392c-.512.331-1.114.496-1.808.496-.608 0-1.141-.133-1.6-.4a2.587 2.587 0 01-1.024-1.136v3.76c0 .192-.058.341-.176.448-.106.117-.261.176-.464.176-.202 0-.362-.059-.48-.176a.608.608 0 01-.176-.448v-9.648c0-.192.059-.347.176-.464.118-.117.278-.176.48-.176.203 0 .358.059.464.176a.624.624 0 01.176.464v.864a2.587 2.587 0 011.024-1.136c.459-.267.992-.4 1.6-.4zm-.256 7.024c.758 0 1.344-.256 1.76-.768.416-.512.624-1.237.624-2.176 0-.939-.208-1.669-.624-2.192-.416-.533-1.002-.8-1.76-.8-.757 0-1.344.256-1.76.768-.405.512-.608 1.243-.608 2.192 0 .949.203 1.685.608 2.208.416.512 1.003.768 1.76.768zm9.233.016c.373.032.56.203.56.512 0 .181-.069.32-.208.416-.128.085-.325.117-.592.096l-.432-.032c-.853-.064-1.483-.32-1.888-.768-.405-.448-.608-1.125-.608-2.032v-4.016h-1.072a.676.676 0 01-.432-.128.499.499 0 01-.144-.368c0-.16.048-.288.144-.384a.623.623 0 01.432-.144h1.072V186.4c0-.203.059-.357.176-.464.117-.117.277-.176.48-.176.192 0 .347.059.464.176.117.107.176.261.176.464v1.808h1.776a.54.54 0 01.4.144.49.49 0 01.16.384.472.472 0 01-.16.368c-.096.085-.229.128-.4.128h-1.776v4.08c0 .587.117 1.013.352 1.28.245.256.608.4 1.088.432l.432.032z" fill="#192457"/><rect x="458" y="141" width="200" height="100" rx="2" fill="#F6F4FC"/><path fill="#7C9DF3" d="M517 205h82v2h-82z"/><path d="M534.048 196.08c-.203 0-.363-.059-.48-.176a.706.706 0 01-.176-.496V185.36c0-.192.059-.347.176-.464a.706.706 0 01.496-.176h3.792c1.184 0 2.101.288 2.752.864.661.576.992 1.392.992 2.448s-.331 1.877-.992 2.464-1.579.88-2.752.88h-3.152v4.032a.706.706 0 01-.176.496c-.117.117-.277.176-.48.176zm3.68-5.792c1.717 0 2.576-.752 2.576-2.256 0-1.483-.859-2.224-2.576-2.224h-3.024v4.48h3.024zm11.416-1.84c.117-.256.304-.384.56-.384.16 0 .304.053.432.16a.5.5 0 01.192.4.504.504 0 01-.064.256l-4.496 9.696a.595.595 0 01-.24.272.538.538 0 01-.304.096.656.656 0 01-.432-.16.472.472 0 01-.176-.384c0-.085.021-.171.064-.256l1.12-2.416-3.168-6.848a.474.474 0 01-.064-.24c0-.16.069-.299.208-.416a.763.763 0 01.48-.176c.107 0 .208.032.304.096a.595.595 0 01.24.272l2.672 6 2.672-5.968zm6.375 6.608c.373.032.56.203.56.512 0 .181-.07.32-.208.416-.128.085-.326.117-.592.096l-.432-.032c-.854-.064-1.483-.32-1.888-.768-.406-.448-.608-1.125-.608-2.032v-4.016h-1.072c-.182 0-.326-.043-.432-.128a.499.499 0 01-.144-.368c0-.16.048-.288.144-.384a.62.62 0 01.432-.144h1.072V186.4c0-.203.058-.357.176-.464.117-.117.277-.176.48-.176a.63.63 0 01.464.176c.117.107.176.261.176.464v1.808h1.776c.17 0 .304.048.4.144.106.096.16.224.16.384a.476.476 0 01-.16.368c-.096.085-.23.128-.4.128h-1.776v4.08c0 .587.117 1.013.352 1.28.245.256.608.4 1.088.432l.432.032zm5.773-7.04c.918 0 1.611.261 2.08.784.47.512.704 1.28.704 2.304v4.336c0 .203-.058.363-.176.48a.661.661 0 01-.464.16c-.202 0-.362-.053-.48-.16-.117-.117-.176-.277-.176-.48v-4.304c0-.693-.144-1.205-.432-1.536-.277-.331-.725-.496-1.344-.496-.714 0-1.285.219-1.712.656-.426.437-.64 1.029-.64 1.776v3.904c0 .203-.058.363-.176.48-.106.107-.261.16-.464.16-.202 0-.362-.053-.48-.16-.117-.117-.176-.277-.176-.48v-10.176c0-.181.059-.331.176-.448a.685.685 0 01.48-.176c.203 0 .358.059.464.176.118.107.176.256.176.448v4.192a2.6 2.6 0 011.072-1.072c.459-.245.982-.368 1.568-.368zm8.39 8.096c-.736 0-1.387-.165-1.952-.496a3.38 3.38 0 01-1.296-1.408c-.299-.619-.448-1.333-.448-2.144 0-.811.149-1.52.448-2.128a3.358 3.358 0 011.296-1.424c.565-.331 1.216-.496 1.952-.496s1.387.165 1.952.496c.565.331.997.805 1.296 1.424.309.608.464 1.317.464 2.128 0 .811-.155 1.525-.464 2.144a3.256 3.256 0 01-1.296 1.408c-.565.331-1.216.496-1.952.496zm0-1.072c.768 0 1.355-.251 1.76-.752.416-.512.624-1.253.624-2.224 0-.949-.208-1.68-.624-2.192-.416-.523-1.003-.784-1.76-.784-.757 0-1.344.261-1.76.784-.416.512-.624 1.243-.624 2.192 0 .96.203 1.696.608 2.208.416.512 1.008.768 1.776.768zm9.563-7.024c1.867 0 2.8 1.029 2.8 3.088v4.336c0 .203-.059.363-.176.48-.107.107-.261.16-.464.16s-.363-.053-.48-.16c-.117-.117-.176-.277-.176-.48v-4.256c0-.725-.144-1.253-.432-1.584-.277-.331-.725-.496-1.344-.496-.715 0-1.285.219-1.712.656-.427.437-.64 1.029-.64 1.776v3.904c0 .203-.059.363-.176.48-.107.107-.261.16-.464.16s-.363-.053-.48-.16c-.117-.117-.176-.277-.176-.48v-6.752c0-.192.059-.347.176-.464.117-.117.277-.176.48-.176.192 0 .341.059.448.176a.608.608 0 01.176.448v.816a2.57 2.57 0 011.072-1.088c.459-.256.981-.384 1.568-.384z" fill="#192457"/><rect x="458" y="251" width="200" height="100" rx="2" fill="#F6F4FC"/><path fill="#7CD6F3" d="M517 313h82v2h-82z"/><path d="M544.048 306.08c-.203 0-.363-.059-.48-.176a.706.706 0 01-.176-.496V295.36c0-.192.059-.347.176-.464a.706.706 0 01.496-.176h3.792c1.184 0 2.101.288 2.752.864.661.576.992 1.392.992 2.448s-.331 1.877-.992 2.464-1.579.88-2.752.88h-3.152v4.032a.706.706 0 01-.176.496c-.117.117-.277.176-.48.176zm3.68-5.792c1.717 0 2.576-.752 2.576-2.256 0-1.483-.859-2.224-2.576-2.224h-3.024v4.48h3.024zm14.681-5.648c.202 0 .357.064.464.192.117.117.176.277.176.48v10.096a.706.706 0 01-.176.496c-.107.117-.262.176-.464.176-.203 0-.363-.059-.48-.176a.702.702 0 01-.176-.496v-4.576h-6.752v4.576a.706.706 0 01-.176.496c-.118.117-.278.176-.48.176-.203 0-.363-.059-.48-.176a.746.746 0 01-.16-.496v-10.096c0-.203.053-.363.16-.48a.618.618 0 01.48-.192.62.62 0 01.48.192c.117.117.176.277.176.48v4.4h6.752v-4.4c0-.203.058-.363.176-.48a.618.618 0 01.48-.192zm4.077 11.44c-.203 0-.363-.059-.48-.176a.702.702 0 01-.176-.496V295.36c0-.192.058-.347.176-.464a.706.706 0 01.496-.176h3.792c1.184 0 2.101.288 2.752.864.661.576.992 1.392.992 2.448s-.331 1.877-.992 2.464c-.662.587-1.579.88-2.752.88h-3.152v4.032a.706.706 0 01-.176.496c-.118.117-.278.176-.48.176zm3.68-5.792c1.717 0 2.576-.752 2.576-2.256 0-1.483-.859-2.224-2.576-2.224h-3.024v4.48h3.024z" fill="#192457"/><rect x="247" y="251" width="200" height="100" rx="2" fill="#F6F4FC"/><path fill="#BF7CF3" d="M306 318h82v2h-82z"/><path d="M343.176 306.128c-1.067 0-1.989-.229-2.768-.688-.779-.469-1.381-1.136-1.808-2-.416-.875-.624-1.904-.624-3.088 0-1.173.208-2.192.624-3.056.427-.875 1.029-1.541 1.808-2 .779-.469 1.701-.704 2.768-.704.715 0 1.387.117 2.016.352a4.79 4.79 0 011.664.976c.171.16.256.347.256.56a.665.665 0 01-.128.4.379.379 0 01-.304.16c-.128 0-.283-.059-.464-.176-.544-.427-1.04-.725-1.488-.896-.437-.171-.944-.256-1.52-.256-1.237 0-2.192.405-2.864 1.216-.661.8-.992 1.941-.992 3.424 0 1.493.331 2.645.992 3.456.672.8 1.627 1.2 2.864 1.2a4.24 4.24 0 001.52-.256c.448-.171.944-.469 1.488-.896.181-.117.336-.176.464-.176.117 0 .219.053.304.16.085.107.128.24.128.4 0 .213-.085.4-.256.56a5 5 0 01-1.664.992 5.965 5.965 0 01-2.016.336zm12.14-7.68l-.72 3.696h1.568c.139 0 .256.048.352.144.107.096.16.213.16.352a.41.41 0 01-.144.32.535.535 0 01-.368.128h-1.744l-.512 2.608a.458.458 0 01-.176.288.492.492 0 01-.304.096.537.537 0 01-.416-.176.533.533 0 01-.08-.464l.464-2.352h-2.56l-.512 2.608a.387.387 0 01-.16.272.445.445 0 01-.304.112.478.478 0 01-.352-.144.478.478 0 01-.144-.352c0-.064.005-.112.016-.144l.464-2.352h-1.072a.499.499 0 01-.368-.144.478.478 0 01-.144-.352.41.41 0 01.144-.32.535.535 0 01.368-.128h1.248l.72-3.696h-1.648a.534.534 0 01-.368-.144.478.478 0 01-.144-.352.41.41 0 01.144-.32.535.535 0 01.368-.128h1.824l.496-2.528a.42.42 0 01.16-.272.507.507 0 01.32-.112c.149 0 .267.048.352.144a.447.447 0 01.144.352.474.474 0 01-.016.144l-.448 2.272h2.56l.496-2.528a.387.387 0 01.16-.272.507.507 0 01.32-.112c.149 0 .267.048.352.144a.447.447 0 01.144.352.474.474 0 01-.016.144l-.448 2.272h.992c.149 0 .272.048.368.144a.478.478 0 01.144.352.41.41 0 01-.144.32.535.535 0 01-.368.128h-1.168zm-1.744 3.696l.736-3.696h-2.56l-.736 3.696h2.56z" fill="#192457"/><rect x="40" y="86" width="104" height="9" rx="4.5" fill="#F6F4FC"/><rect x="40" y="114" width="77.008" height="9" rx="4.5" fill="#F6F4FC"/><rect x="40" y="142" width="93.679" height="9" rx="4.5" fill="#F6F4FC"/><rect x="40" y="194" width="93.679" height="9" rx="4.5" fill="#F6F4FC"/><rect x="40" y="168" width="73.038" height="9" rx="4.5" fill="#F6F4FC"/><defs><filter id="filter0_d" x="0" y="0" width="561" height="359" filterUnits="userSpaceOnUse" color-interpolation-filters="sRGB"><feFlood flood-opacity="0" result="BackgroundImageFix"/><feColorMatrix in="SourceAlpha" values="0 0 0 0 0 0 0 0 0 0 0 0 0 0 0 0 0 0 127 0"/><feOffset dx="10" dy="5"/><feGaussianBlur stdDeviation="5"/><feColorMatrix values="0 0 0 0 0.945098 0 0 0 0 0.933333 0 0 0 0 0.984314 0 0 0 1 0"/><feBlend in2="BackgroundImageFix" result="effect1_dropShadow"/><feBlend in="SourceGraphic" in2="effect1_dropShadow" result="shape"/></filter><filter id="filter1_d" x="171" y="47" width="573" height="371" filterUnits="userSpaceOnUse" color-interpolation-filters="sRGB"><feFlood flood-opacity="0" result="BackgroundImageFix"/><feColorMatrix in="SourceAlpha" values="0 0 0 0 0 0 0 0 0 0 0 0 0 0 0 0 0 0 127 0"/><feMorphology radius="6" operator="dilate" in="SourceAlpha" result="effect1_dropShadow"/><feOffset dx="10" dy="5"/><feGaussianBlur stdDeviation="5"/><feColorMatrix values="0 0 0 0 0.946458 0 0 0 0 0.934167 0 0 0 0 0.983333 0 0 0 1 0"/><feBlend in2="BackgroundImageFix" result="effect1_dropShadow"/><feBlend in="SourceGraphic" in2="effect1_dropShadow" result="shape"/></filter></defs></svg>