<svg width="35" height="23" viewBox="0 0 35 23" fill="none" xmlns="http://www.w3.org/2000/svg">
<path d="M9.53674e-06 12.9161C9.53674e-06 18.0791 4.27264 22.2645 9.54319 22.2645C14.8137 22.2645 19.0864 18.0791 19.0864 12.9161C19.0864 7.75309 14.8137 3.56766 9.54319 3.56766C4.27264 3.56766 9.53674e-06 7.75309 9.53674e-06 12.9161Z" fill="#4D69FD"/>
<path d="M26.7691 7.79035C26.7691 11.8061 23.7306 15.1122 19.8272 15.535L15.6405 22.592H7.98504C6.90937 22.5684 4.58545 21.4955 2.92131 19.6547L12.0977 4.13456C13.4074 1.67464 15.9975 0 18.9788 0C23.2813 0 26.7691 3.48785 26.7691 7.79035Z" fill="#2F48B8"/>
<path fill-rule="evenodd" clip-rule="evenodd" d="M34.2775 15.2531C34.2842 18.9822 32.0879 22.3548 28.9264 22.6539L13.2435 22.5955L19.6061 11.5973C20.9158 9.13738 23.5059 7.46277 26.4871 7.46277C30.7896 7.46277 34.2775 10.9506 34.2775 15.2531Z" fill="#122476"/>
</svg>
