<svg width="25" height="17" viewBox="0 0 25 17" fill="none" xmlns="http://www.w3.org/2000/svg">
<ellipse rx="6.96024" ry="6.8182" transform="matrix(-1 0 0 1 6.96029 9.42025)" fill="white"/>
<path d="M19.5238 5.68183C19.5238 8.61071 17.3077 11.022 14.4608 11.3304L11.4073 16.4773H5.82379C5.03926 16.4601 3.34433 15.6776 2.1306 14.335L8.82333 3.01551C9.77851 1.22138 11.6676 0 13.842 0C16.98 0 19.5238 2.54384 19.5238 5.68183Z" fill="white"/>
<path d="M21.0972 16.5225C23.403 16.3043 25.0049 13.8446 25 11.1248C25 7.98677 22.4562 5.44293 19.3182 5.44293C17.1438 5.44293 15.2547 6.6643 14.2995 8.45839L9.65905 16.4799L21.0972 16.5225Z" fill="white"/>
</svg>
